Coordinates
version=1
nRows=8
nColumns=63
inDegrees=yes

Units are S.I. units (second, meters, Newtons, ...)
If the header above contains a line with 'inDegrees', this indicates whether rotational values are in degrees (yes) or radians (no).

endheader
time	pelvis_tilt	pelvis_list	pelvis_rotation	pelvis_tx	pelvis_ty	pelvis_tz	hip_flexion_r	hip_adduction_r	hip_rotation_r	knee_angle_r	knee_angle_r_beta	ankle_angle_r	subtalar_angle_r	mtp_angle_r	hip_flexion_l	hip_adduction_l	hip_rotation_l	knee_angle_l	knee_angle_l_beta	ankle_angle_l	subtalar_angle_l	mtp_angle_l	L5_S1_Flex_Ext	L5_S1_Lat_Bending	L5_S1_axial_rotation	L4_L5_Flex_Ext	L4_L5_Lat_Bending	L4_L5_axial_rotation	L3_L4_Flex_Ext	L3_L4_Lat_Bending	L3_L4_axial_rotation	L2_L3_Flex_Ext	L2_L3_Lat_Bending	L2_L3_axial_rotation	L1_L2_Flex_Ext	L1_L2_Lat_Bending	L1_L2_axial_rotation	L1_T12_Flex_Ext	L1_T12_Lat_Bending	L1_T12_axial_rotation	Abs_r3	Abs_r2	Abs_r1	Abs_t1	Abs_t2	neck_flexion	neck_bending	neck_rotation	arm_flex_r	arm_add_r	arm_rot_r	elbow_flex_r	pro_sup_r	wrist_flex_r	wrist_dev_r	arm_flex_l	arm_add_l	arm_rot_l	elbow_flex_l	pro_sup_l	wrist_flex_l	wrist_dev_l
1.016667	-2.935499	-7.478280	83.179339	0.153807	1.053686	0.324676	-1.237908	2.208763	12.032672	1.320295	0.023044	21.694020	-11.233183	0.000000	-0.871843	-2.493547	-6.392514	2.484947	0.043371	26.730347	3.005659	0.000000	0.033420	-0.023791	1.792175	0.062065	-0.031642	1.904186	0.054906	-0.057845	1.904186	0.038196	-0.057845	1.568153	0.031034	-0.048515	1.456142	0.019096	-0.036852	1.344131	0.238718	-0.269128	9.967538	0.000000	0.000000	23.215170	-1.654092	-14.299460	-1.458864	-10.024195	-7.627124	124.327811	81.600701	-9.791248	18.160631	2.162975	-15.943387	3.792068	81.419234	88.937849	-11.179208	11.789995
1.033333	-2.750506	-7.461029	83.522233	0.152752	1.054228	0.323876	-1.408572	2.346893	11.280039	1.133474	0.019783	21.641549	-10.810398	0.000000	-0.935605	-2.637130	-5.934529	2.419156	0.042222	26.715501	2.906494	0.000000	0.034626	0.012718	1.726597	0.064305	0.016915	1.834510	0.056888	0.030922	1.834510	0.039574	0.030922	1.510773	0.032154	0.025934	1.402860	0.019785	0.019700	1.294948	0.247332	0.143865	9.602816	0.000000	0.000000	23.171089	-1.927138	-14.078962	-1.623378	-10.225723	-8.322364	127.106275	81.654698	-9.754815	18.578704	1.791137	-14.986083	2.516095	88.051027	88.698124	-9.727835	12.912413
1.050000	-2.568126	-7.431438	83.826646	0.151809	1.054635	0.323249	-1.580338	2.494105	10.615046	0.973634	0.016993	21.586207	-10.411554	0.000000	-0.997894	-2.782253	-5.441483	2.365315	0.041283	26.725951	2.732098	0.000000	0.032388	0.045819	1.634135	0.060148	0.060940	1.736269	0.053210	0.111405	1.736269	0.037016	0.111405	1.429868	0.030076	0.093435	1.327735	0.018507	0.070974	1.225601	0.231345	0.518318	9.088570	0.000000	0.000000	23.132199	-2.084075	-13.766661	-1.397862	-10.472242	-8.590460	129.584062	81.978432	-9.668343	18.694811	1.718861	-13.990530	1.461047	94.391606	88.446852	-8.383758	13.954935
1.066667	-2.382640	-7.391767	84.068393	0.150977	1.054943	0.322792	-1.748432	2.653163	10.073964	0.845233	0.014752	21.523023	-10.037841	0.000000	-1.063778	-2.932524	-4.940699	2.317547	0.040449	26.741740	2.483758	0.000000	0.027412	0.077286	1.526852	0.050907	0.102790	1.622281	0.045035	0.187912	1.622281	0.031329	0.187912	1.335996	0.025455	0.157601	1.240568	0.015663	0.119715	1.145139	0.195802	0.874270	8.491895	0.000000	0.000000	23.068850	-2.167783	-13.383125	-0.785930	-10.768058	-8.494164	131.758685	82.610223	-9.567736	18.462359	1.972658	-13.010571	0.785609	100.400741	88.076034	-7.407258	14.891342
1.083333	-2.197571	-7.337598	84.229045	0.150277	1.055181	0.322508	-1.911812	2.817591	9.676516	0.754517	0.013169	21.463654	-9.681118	0.000000	-1.141987	-3.082538	-4.479218	2.272472	0.039662	26.751801	2.192400	0.000000	0.018924	0.107262	1.404801	0.035144	0.142659	1.492601	0.031090	0.260798	1.492601	0.021628	0.260798	1.229201	0.017573	0.218729	1.141401	0.010813	0.166149	1.053601	0.135173	1.213373	7.813082	0.000000	0.000000	22.965985	-2.178342	-12.886259	0.237122	-11.099510	-8.025248	133.595406	83.524632	-9.494816	17.862261	2.447809	-12.076621	0.136652	106.195930	87.839002	-6.773226	15.775631
1.100000	-2.030427	-7.266819	84.287559	0.149767	1.055366	0.322394	-2.071822	2.968032	9.429361	0.689271	0.012030	21.422511	-9.326908	0.000000	-1.242526	-3.213686	-4.070165	2.216543	0.038686	26.728035	1.840929	0.000000	0.006576	0.132876	1.288956	0.012212	0.176725	1.369515	0.010803	0.323074	1.369515	0.007516	0.323074	1.127836	0.006106	0.270960	1.047277	0.003757	0.205825	0.966717	0.046971	1.503117	7.168785	0.000000	0.000000	22.813072	-2.140605	-12.396651	1.580899	-11.439019	-7.325568	135.159054	84.595656	-9.446377	17.018398	3.223081	-11.252100	-0.225545	111.714216	87.632025	-6.432806	16.406058
1.116667	-1.885781	-7.177563	84.281314	0.149427	1.055512	0.322454	-2.225251	3.102392	9.308003	0.654659	0.011426	21.407816	-9.013627	0.000000	-1.357174	-3.325642	-3.705487	2.161543	0.037726	26.673487	1.470774	0.000000	-0.009408	0.153734	1.172607	-0.017472	0.204467	1.245895	-0.015457	0.373790	1.245895	-0.010753	0.373790	1.026031	-0.008737	0.313495	0.952743	-0.005376	0.238135	0.879455	-0.067203	1.739075	6.521688	0.000000	0.000000	22.564277	-2.058001	-11.881635	3.225176	-11.768101	-6.384275	136.455157	85.461944	-9.413496	15.987928	4.293769	-10.614517	-0.289459	116.999510	87.507961	-6.568192	16.888334
1.133333	-1.775059	-7.063647	84.191730	0.149299	1.055639	0.322663	-2.379731	3.204422	9.296247	0.639706	0.011165	21.427328	-8.712577	0.000000	-1.499831	-3.404028	-3.398673	2.099033	0.036635	26.573788	1.068989	0.000000	-0.029301	0.167964	1.075234	-0.054414	0.223392	1.142436	-0.048138	0.408387	1.142436	-0.033488	0.408387	0.940829	-0.027208	0.342512	0.873627	-0.016742	0.260176	0.806425	-0.209291	1.900039	5.980127	0.000000	0.000000	22.214475	-1.937672	-11.440609	5.058578	-12.068261	-5.331595	137.589081	85.938898	-9.353140	14.959986	5.726092	-10.156622	-0.022126	121.917834	87.450892	-6.901993	17.134398
